<?xml version="1.0"?>
<svg width="640" height="480" xmlns="http://www.w3.org/2000/svg" xmlns:svg="http://www.w3.org/2000/svg">
 <!-- Created with SVG-edit - https://github.com/SVG-Edit/svgedit-->
 <g class="layer">
  <title>Layer 1</title>
  <text fill="#7f007f" font-family="serif" font-size="24" id="svg_1" stroke="#000000" stroke-width="0" text-anchor="middle" transform="matrix(8.34395 0 0 8.27273 -370.755 -1003.64)" x="80.814505" xml:space="preserve" y="155.873626">VIPP</text>
  <path d="m48.184994,119.2611l29.027899,-28.930398l29.027899,28.930398l-14.513951,0l0,29.069605l-29.027897,0l0,-29.069605l-14.513951,0z" fill="#ff007f" id="svg_2" stroke="#000000" stroke-dasharray="null" stroke-linecap="null" stroke-linejoin="null" stroke-width="0" transform="rotate(90.6244 77.2129 119.331)"/>
  <path d="m453.289993,114.657299l28.527417,-28.431597l28.527417,28.431597l-14.26371,0l0,28.568404l-28.527415,0l0,-28.568404l-14.26371,0z" fill="#0000ff" id="svg_7" stroke="#000000" stroke-dasharray="null" stroke-linecap="null" stroke-linejoin="null" stroke-width="0"/>
  <path d="m450.57229,317.584794l30.960406,-29.478132l30.960406,29.478132l-15.480204,0l0,29.619975l-30.960404,0l0,-29.619975l-15.480204,0z" fill="#7fff00" id="svg_9" stroke="#000000" stroke-dasharray="null" stroke-linecap="null" stroke-linejoin="null" stroke-width="0" transform="rotate(-89.0744 481.533 317.656)"/>
  <path d="m59.104991,320.716295l29.034153,-30.925598l29.034153,30.925598l-14.517077,0l0,31.074406l-29.034151,0l0,-31.074406l-14.517077,0z" fill="#7f0000" id="svg_10" stroke="#000000" stroke-dasharray="null" stroke-linecap="null" stroke-linejoin="null" stroke-width="0"/>
  <rect fill="#000000" height="40" id="svg_13" stroke="#000000" stroke-dasharray="null" stroke-linecap="null" stroke-linejoin="null" stroke-width="0" width="464" x="47.5" y="39.5"/>
  <rect fill="#000000" height="0" id="svg_14" stroke="#000000" stroke-dasharray="null" stroke-linecap="null" stroke-linejoin="null" stroke-width="0" width="1" x="364.5" y="397.5"/>
  <rect fill="#000000" height="40" id="svg_15" stroke="#000000" stroke-dasharray="null" stroke-linecap="null" stroke-linejoin="null" stroke-width="0" width="464" x="50.5" y="367"/>
 </g>
</svg>